<?xml version="1.0" encoding="UTF-8"?><svg xmlns="http://www.w3.org/2000/svg" xmlns:xlink="http://www.w3.org/1999/xlink" viewBox="0 0 657.07 385.21"><defs><style>.cls-1{mix-blend-mode:screen;}.cls-1,.cls-2{isolation:isolate;}.cls-1,.cls-3{fill:#173e26;}.cls-4{fill:#263238;}.cls-5{fill:#fff;}.cls-6{opacity:.2;}.cls-7{fill:none;}.cls-8{fill:#e0e0e0;}.cls-9{fill:#455a64;}.cls-10{fill:#ebebeb;}.cls-11{fill:#f5f5f5;}.cls-12{fill:#fafafa;}.cls-13{clip-path:url(#clippath);}</style><clipPath id="clippath"><path class="cls-7" d="M534.61,276.61l-2.52,22.88c0,.29-.08.57-.13.86-1.03,4.67-5.22,7.96-10,7.85h-11.24c-1.92,0-3.47-1.57-3.47-3.49,0-.24.03-.48.08-.72l5.3-27.46c.37-1.79,1.94-3.07,3.77-3.08h15.38c1.6,0,2.89,1.31,2.89,2.91,0,.1,0,.21-.02.31l-.04-.06Z"/></clipPath></defs><g class="cls-2"><g id="Layer_1"><g id="freepik--Character--inject-3"><rect class="cls-9" x="110.52" y="145.08" width="354.59" height="234.49" rx="14.57" ry="14.57"/><path class="cls-9" d="M96.66,364.43h384.17v2.72c0,9.83-7.97,17.8-17.8,17.8H114.46c-9.83,0-17.8-7.97-17.8-17.8v-2.72h0Z"/><rect class="cls-4" x="120.04" y="154.4" width="334.56" height="198.02"/><polygon class="cls-4" points="252.86 362.23 257.63 369.81 324.71 369.81 329.14 362.23 252.86 362.23"/><rect class="cls-10" x="126.93" y="161.1" width="321.47" height="190.68" rx="3.27" ry="3.27"/><polygon class="cls-12" points="448.05 352.07 126.59 352.07 126.93 175.36 448.05 175.36 448.05 352.07"/><path class="cls-4" d="M153.29,168.49c0,1.42-1.15,2.57-2.57,2.57s-2.57-1.15-2.57-2.57c0-1.42,1.15-2.57,2.57-2.57,0,0,0,0,0,0,1.41,0,2.56,1.15,2.56,2.56,0,0,0,0,0,.01Z"/><path class="cls-4" d="M137.78,168.49c0,1.42-1.15,2.57-2.57,2.57s-2.57-1.15-2.57-2.57c0-1.42,1.15-2.57,2.57-2.57,0,0,0,0,0,0,1.41,0,2.56,1.15,2.56,2.56,0,0,0,0,0,.01Z"/><path class="cls-4" d="M145.2,168.49c0,1.42-1.15,2.57-2.57,2.57s-2.57-1.15-2.57-2.57c0-1.42,1.15-2.57,2.57-2.57,0,0,0,0,0,0,1.42,0,2.56,1.15,2.56,2.57Z"/><path class="cls-4" d="M462.06,362.23c0,.13-78.7.23-175.76.23s-175.78-.1-175.78-.23,78.69-.23,175.78-.23,175.76.1,175.76.23Z"/><path class="cls-8" d="M328.7,317.58c0,.14-19.28.26-43.06.26s-43.06-.12-43.06-.26,19.28-.26,43.06-.26,43.06.17,43.06.26Z"/><rect class="cls-11" x="134.36" y="272.29" width="95.93" height="72.1"/><polygon class="cls-8" points="134.4 344.44 167.86 299.59 188.64 327.61 202.71 312.61 230.33 344.35 134.4 344.44"/><path class="cls-8" d="M197.42,294.07c0,4.17-3.37,7.55-7.54,7.56-4.17,0-7.55-3.37-7.56-7.54,0-4.17,3.37-7.55,7.54-7.56,4.16-.01,7.55,3.36,7.56,7.52,0,0,0,.01,0,.02Z"/><rect class="cls-11" x="341.35" y="272.4" width="95.93" height="72.1"/><polygon class="cls-8" points="341.38 344.55 374.85 299.7 395.63 327.72 409.69 312.72 437.31 344.46 341.38 344.55"/><path class="cls-8" d="M404.41,294.18c0,4.18-3.37,7.56-7.55,7.57s-7.56-3.37-7.57-7.55,3.37-7.56,7.55-7.57h.01c4.17,0,7.55,3.38,7.56,7.55Z"/><path class="cls-8" d="M422.1,258.07c.89-.15,1.79-.21,2.69-.18,1.66,0,4-.08,6.49-.08h2.82l-.25.25c0-1.85.05-3.44.1-4.57-.02-.6.03-1.2.15-1.79.12.59.18,1.19.16,1.79,0,1.13.07,2.72.09,4.57v.25h-3.07c-2.53,0-4.83,0-6.49-.08-.9.04-1.8-.02-2.69-.16Z"/><path class="cls-8" d="M398.1,258.07c3.99-.35,8.01-.35,12,0-3.99.35-8.01.35-12,0Z"/><path class="cls-8" d="M374.1,258.07c3.99-.35,8.01-.35,12,0-3.99.35-8.01.35-12,0Z"/><path class="cls-8" d="M350.1,258.07c3.99-.35,8.01-.35,12,0-3.99.35-8.01.35-12,0Z"/><path class="cls-8" d="M326.1,258.07c3.99-.35,8.01-.35,12,0-3.99.35-8.01.35-12,0Z"/><path class="cls-8" d="M302.1,258.07c3.99-.35,8.01-.35,12,0-3.99.35-8.01.35-12,0Z"/><path class="cls-8" d="M278.1,258.07c3.99-.35,8.01-.35,12,0-3.99.35-8.01.35-12,0Z"/><path class="cls-8" d="M254.1,258.07c3.99-.35,8.01-.35,12,0-3.99.35-8.01.35-12,0Z"/><path class="cls-8" d="M230.1,258.07c1.99-.26,4-.34,6-.26,2-.08,4.01,0,6,.26-1.99.26-4,.34-6,.26-2,.08-4.01,0-6-.26Z"/><path class="cls-8" d="M206.1,258.07c1.99-.26,4-.34,6-.26,2-.08,4.01,0,6,.26-1.99.26-4,.34-6,.26-2,.08-4.01,0-6-.26Z"/><path class="cls-8" d="M182.1,258.07c1.99-.26,4-.34,6-.26,2-.08,4.01,0,6,.26-1.99.26-4,.34-6,.26-2,.08-4.01,0-6-.26Z"/><path class="cls-8" d="M158.1,258.07c1.99-.26,4-.34,6-.26,2-.08,4.01,0,6,.26-1.99.26-4,.34-6,.26-2,.08-4.01,0-6-.26Z"/><path class="cls-8" d="M134.12,258.06h0c1.99-.25,4-.33,6-.25,2-.08,4.01,0,6,.26-1.99.26-4,.34-6,.26-2,.08-4.01,0-6-.25h0v-.02Z"/><path class="cls-8" d="M134.12,234.06c.35,3.99.35,8.01,0,12-.35-3.99-.35-8.01,0-12Z"/><path class="cls-8" d="M134.12,210.06c.26,1.99.34,4,.26,6,.08,2,0,4.01-.26,6-.26-1.99-.35-4-.26-6-.09-2,0-4.01.26-6Z"/><path class="cls-8" d="M134.12,186.06c.26,1.99.34,4,.26,6,.08,2,0,4.01-.26,6-.26-1.99-.35-4-.26-6-.09-2,0-4.01.26-6Z"/><path class="cls-8" d="M154.94,182.88c-1.99.26-4,.34-6,.26-2,.08-4.01,0-6-.26,1.99-.26,4-.35,6-.26,2-.09,4.01,0,6,.26Z"/><path class="cls-8" d="M178.94,182.88c-1.99.26-4,.34-6,.26-2,.08-4.01,0-6-.26,1.99-.26,4-.35,6-.26,2-.09,4.01,0,6,.26Z"/><path class="cls-8" d="M202.94,182.88c-1.99.26-4,.34-6,.26-2,.08-4.01,0-6-.26,1.99-.26,4-.35,6-.26,2-.09,4.01,0,6,.26Z"/><path class="cls-8" d="M226.94,182.88c-1.99.26-4,.34-6,.26-2,.08-4.01,0-6-.26,1.99-.26,4-.35,6-.26,2-.09,4.01,0,6,.26Z"/><path class="cls-8" d="M250.94,182.88c-3.99.35-8.01.35-12,0,1.99-.26,4-.35,6-.26,2-.09,4.01,0,6,.26Z"/><path class="cls-8" d="M274.94,182.88c-3.99.35-8.01.35-12,0,3.99-.35,8.01-.35,12,0Z"/><path class="cls-8" d="M298.94,182.88c-3.99.35-8.01.35-12,0,3.99-.35,8.01-.35,12,0Z"/><path class="cls-8" d="M322.94,182.88c-3.99.35-8.01.35-12,0,3.99-.35,8.01-.35,12,0Z"/><path class="cls-8" d="M346.94,182.88c-3.99.35-8.01.35-12,0,3.99-.35,8.01-.35,12,0Z"/><path class="cls-8" d="M370.94,182.88c-3.99.35-8.01.35-12,0,3.99-.35,8.01-.35,12,0Z"/><path class="cls-8" d="M394.94,182.88c-3.99.35-8.01.35-12,0,3.99-.35,8.01-.35,12,0Z"/><path class="cls-8" d="M418.94,182.88c-3.99.35-8.01.35-12,0,3.99-.35,8.01-.35,12,0Z"/><path class="cls-8" d="M434.1,191.71c-.26-1.99-.34-4-.26-6v-2.83l.23.23c-1.06.04-2.12-.04-3.16-.23,1.04-.2,2.1-.28,3.16-.23h.23v3.07c.11,2,.04,4-.2,5.99Z"/><path class="cls-8" d="M434.1,215.71c-.26-1.99-.34-4-.26-6-.08-2,0-4.01.26-6,.26,1.99.35,4,.26,6,.09,2,0,4.01-.26,6Z"/><path class="cls-8" d="M434.1,239.71c-.35-3.99-.35-8.01,0-12,.35,3.99.35,8.01,0,12Z"/><path class="cls-8" d="M328.7,341.89c0,.15-19.28.26-43.06.26s-43.06-.11-43.06-.26,19.28-.26,43.06-.26,43.06.12,43.06.26Z"/><path class="cls-8" d="M328.7,330.77c0,.14-19.28.26-43.06.26s-43.06-.12-43.06-.26,19.28-.26,43.06-.26,43.06.12,43.06.26Z"/></g><g id="freepik--Sign--inject-3"><rect class="cls-4" x="59.76" y="245.02" width="5.18" height="139.73"/><circle class="cls-3" cx="62.35" cy="219.88" r="30.12"/><path class="cls-5" d="M89.47,219.49c-.03-.14-.05-.29-.05-.44,0-.31,0-.74-.09-1.28,0-.29,0-.6-.06-.95s-.12-.72-.18-1.13c-.12-.94-.31-1.88-.57-2.79-.63-2.53-1.64-4.95-3-7.18-1.78-2.96-4.11-5.55-6.86-7.63-7.27-5.53-16.87-6.98-25.45-3.84-1.2.43-2.37.95-3.5,1.54-.57.31-1.12.67-1.68,1-.56.34-1.11.71-1.62,1.12-1.05.8-2.06,1.66-3,2.59-.95.98-1.83,2.02-2.64,3.12-1.67,2.24-2.96,4.74-3.83,7.4-.91,2.73-1.39,5.59-1.44,8.47.04,2.88.5,5.73,1.38,8.47.87,2.66,2.17,5.16,3.84,7.41.81,1.1,1.69,2.14,2.63,3.12.96.93,1.98,1.79,3.05,2.59.51.41,1.06.78,1.62,1.12.56.33,1.11.69,1.68,1,1.13.6,2.3,1.11,3.5,1.54,12.13,4.41,25.68-.4,32.31-11.47,1.36-2.22,2.37-4.64,3-7.17.26-.92.45-1.85.57-2.8.07-.4.14-.78.18-1.13s0-.66.06-.94c.04-.55.07-.98.09-1.29,0-.15.02-.3.05-.44.01.15.01.29,0,.44v2.29c0,.35-.1.72-.15,1.14-.11.95-.29,1.89-.53,2.82-.62,2.56-1.64,5.01-3,7.27-3.98,6.74-10.67,11.45-18.36,12.93-4.8.9-9.76.5-14.36-1.16-1.23-.44-2.42-.96-3.58-1.56-.57-.31-1.13-.67-1.7-1-.58-.35-1.14-.75-1.67-1.18-1.1-.8-2.13-1.68-3.11-2.63-.97-1-1.86-2.06-2.69-3.17-1.7-2.29-3.02-4.83-3.92-7.54-1.88-5.61-1.88-11.67,0-17.28.9-2.71,2.22-5.25,3.92-7.54.83-1.11,1.72-2.17,2.69-3.16.97-.96,2.01-1.86,3.11-2.68.52-.42,1.07-.8,1.65-1.13.57-.34,1.13-.71,1.7-1,1.16-.6,2.35-1.12,3.58-1.56,4.6-1.66,9.56-2.06,14.36-1.15,7.7,1.47,14.4,6.18,18.38,12.94,1.37,2.26,2.38,4.71,3,7.28.24.93.42,1.87.53,2.82.05.41.12.79.15,1.14s0,.66,0,1v1.29c.01.12.02.25.01.37Z"/><rect class="cls-12" x="46.67" y="216.12" width="31.37" height="6.54"/></g><g id="freepik--Crane--inject-3"><rect class="cls-5" x="175.73" y="192.9" width="294.34" height="85.45" transform="translate(-17.82 26.6) rotate(-4.59)"/><path class="cls-4" d="M473.04,266.4c-.1-1.23-2.59-31.49-7-85.16l.17.15-293.37,23.67h0l.23-.28c2.36,29.4,4.66,58,6.84,85.17l-.27-.23,209.7-16.73,83.7-6.59-1.43.13-4.24.36-16.45,1.35-61.39,5-209.86,17h-.25v-.26c-2.19-27.15-4.49-55.77-6.85-85.17v-.26h.26l293.35-23.49h.17v.16c4.22,53.68,6.6,83.95,6.69,85.18Z"/><rect class="cls-3" x="183.16" y="210.15" width="92.88" height="69.81" transform="translate(-16.55 16.63) rotate(-4)"/><path class="cls-8" d="M388.6,266.37c-1.97.42-3.98.68-6,.76l-.28-.24h0v-1.19c0-.38-.06-.75-.08-1.12,0-.66-.07-1.29-.11-1.91-.09-.58-.09-1.18,0-1.76.19.56.31,1.14.33,1.73.07.61.14,1.24.22,1.9,0,.36.07.74.1,1.12l.06.59v.59h0l-.28-.24c2-.25,4.02-.32,6.04-.23Z"/><path class="cls-8" d="M415.78,264.08c-2.23.44-4.49.72-6.76.83-2.26.28-4.54.39-6.81.31,2.23-.44,4.49-.72,6.76-.83,2.26-.28,4.54-.39,6.81-.31Z"/><path class="cls-8" d="M442.88,261.79c-2.23.44-4.49.72-6.76.83-2.26.28-4.54.38-6.81.31,2.23-.44,4.49-.72,6.76-.83,2.26-.28,4.54-.39,6.81-.31Z"/><path class="cls-8" d="M461.92,254.16c.43,1.96.69,3.95.77,5.95-.48.57-.14.16-.24.29h-1.21l-1.12.08-1.9.11c-.59.08-1.18.08-1.77,0,.56-.19,1.15-.3,1.74-.33l1.89-.22,1.12-.11.6-.05h.6c-.1.12.24-.28-.23.28-.25-1.99-.34-4-.25-6Z"/><path class="cls-8" d="M460.03,231.77c.69,3.69,1.02,7.44,1,11.19-.41-1.83-.66-3.69-.73-5.57-.26-1.86-.35-3.74-.27-5.62Z"/><path class="cls-8" d="M458.14,209.39c.42,1.83.67,3.69.74,5.57.24,1.86.31,3.74.21,5.62-.42-1.83-.66-3.7-.73-5.58-.24-1.86-.31-3.74-.22-5.61Z"/><path class="cls-8" d="M450.71,192.72c1.97-.42,3.98-.68,6-.76l.28.24h0v1.19c0,.38.05.75.08,1.12,0,.66.07,1.29.1,1.91.09.58.09,1.18,0,1.76-.19-.56-.31-1.14-.33-1.73-.07-.61-.14-1.24-.22-1.9,0-.36-.07-.74-.11-1.12l-.05-.59v-.59h0l.29.24c-2,.25-4.02.32-6.04.23Z"/><path class="cls-8" d="M423.58,195.01c2.23-.44,4.49-.72,6.76-.83,2.25-.28,4.53-.39,6.8-.31-2.23.44-4.49.72-6.76.83-2.25.28-4.53.39-6.8.31Z"/><path class="cls-8" d="M396.44,197.3c2.23-.44,4.49-.72,6.76-.83,2.26-.28,4.54-.38,6.81-.31-2.23.44-4.5.72-6.77.83-2.25.28-4.53.39-6.8.31Z"/><path class="cls-8" d="M377.39,204.93c-.42-1.96-.68-3.95-.76-5.95.47-.57.13-.16.24-.28h.61l.59-.05,1.12-.08,1.91-.11c.59-.08,1.18-.08,1.77,0-.56.19-1.15.3-1.74.33l-1.9.22-1.12.11-.59.05h-.61l.24-.28c.26,2,.34,4.02.24,6.04Z"/><path class="cls-8" d="M379.28,227.32c-.41-1.83-.66-3.7-.73-5.58-.25-1.86-.32-3.74-.21-5.61.41,1.83.66,3.69.73,5.57.25,1.86.32,3.74.21,5.62Z"/><path class="cls-8" d="M381.17,249.7c-.41-1.83-.66-3.69-.73-5.57-.25-1.86-.32-3.74-.21-5.62.41,1.83.66,3.7.73,5.58.25,1.86.32,3.74.21,5.61Z"/><polygon class="cls-3" points="185.46 282 214.67 236.53 236.59 262.12 249.12 246.71 277.88 275.43 185.46 282"/><path class="cls-3" d="M242.78,229.21c.29,4.02-2.74,7.51-6.76,7.8-4.02.29-7.51-2.74-7.8-6.76-.29-4.02,2.74-7.51,6.76-7.8,0,0,0,0,0,0,4.02-.28,7.51,2.74,7.8,6.76Z"/><g class="cls-6"><polygon points="185.46 282 214.67 236.53 236.59 262.12 249.12 246.71 277.88 275.43 185.46 282"/></g><g class="cls-6"><path d="M242.78,229.21c.29,4.02-2.74,7.51-6.76,7.8-4.02.29-7.51-2.74-7.8-6.76-.29-4.02,2.74-7.51,6.76-7.8,0,0,0,0,0,0,4.02-.28,7.51,2.74,7.8,6.76Z"/></g><path class="cls-4" d="M369.29,217.93c0,.15-17.95,1.92-40.12,4s-40.16,3.59-40.18,3.44,18-1.91,40.13-4,40.16-3.58,40.17-3.44Z"/><path class="cls-4" d="M371.62,231.29c0,.15-18.16,1.94-40.57,4s-40.61,3.63-40.63,3.49,18.15-1.94,40.58-4,40.6-3.63,40.62-3.49Z"/><path class="cls-4" d="M373.94,244.66c0,.14-18.35,1.95-41,4s-41,3.67-41,3.53,18.34-1.95,41-4.05,40.99-3.65,41-3.48Z"/><path class="cls-4" d="M374.42,257.9c0,.15-18.37,2-41.05,4.06s-41.1,3.67-41.11,3.53,18.37-2,41.06-4.05,41.09-3.68,41.1-3.54Z"/><rect class="cls-3" x="287.25" y="210.8" width="42.41" height="3.36" transform="translate(-16.01 25.37) rotate(-4.59)"/><path class="cls-8" d="M420.6,240c-.14,0-.69-4.92-1.22-11s-.84-11.05-.69-11.06.68,4.92,1.21,11,.88,11.05.7,11.06Z"/><path class="cls-8" d="M429.84,228.43c0,.14-4.74.56-10.6.93s-10.63.56-10.63.42c3.52-.49,7.05-.81,10.6-.94,5.86-.35,10.62-.55,10.63-.41Z"/><path class="cls-4" d="M466.2,181.22s-.24-.07-.71-.25l-2-.78-7.88-3.06-29.13-11.41-97.28-38.34h.21l-12.31,6.11-102,50.53-30.92,15.25-8.4,4.12-2.2,1.06c-.49.24-.75.35-.75.35l.73-.4,2.17-1.1,8.38-4.21,30.86-15.41,101.92-50.67,12.31-6.11h.21l97.22,38.49,29,11.56,7.84,3.15,2,.83.73.29Z"/><path class="cls-4" d="M406.46,41.49c-1.53-3.37-5.49-4.86-8.85-3.33-1.45.66-2.62,1.81-3.3,3.25l-10.45.86,10.56,20.83,6.62-12.18c.73-.07,1.44-.26,2.1-.57,3.36-1.53,4.85-5.5,3.32-8.86,0,0,0,0,0,0Z"/><path class="cls-4" d="M346.14,11.33l6.82-2.91-16.45-4.14c-1.99-3.11-6.13-4.02-9.24-2.02s-4.02,6.13-2.02,9.24c1.99,3.11,6.13,4.02,9.24,2.02.16-.1.32-.21.47-.33l15.62,9.56-4.44-11.42Z"/><path class="cls-4" d="M477.78,215.79v-.14L364.89,5.21l-.64-1.19-17.78,8.11,85.13,224.36.05.14,50.7,80.59,1-.15,1.17-.17.92-.14-10.49-16.67,6.13-15.79,16.23,6,7.15,23.65.85-.12,1.08-.16,1-.14-29.61-97.74ZM485.08,249.88l-20.26-5.2,11.75-22.95,8.51,28.15ZM463.03,244.22l-24.92-6.4,36.78-16.76-11.86,23.16ZM472.44,211.86l-25.89-7.16,10.62-21.31,15.27,28.47ZM444.78,204.22l-22.79-6.3,33.55-15.29-10.76,21.59ZM454.01,177.49l-23.86-8.32,8.51-20.3,15.35,28.62ZM428.45,168.58l-21-7.31,29.69-13.52-8.69,20.83ZM435.28,142.58l-21.71-9.38,6.43-19.12,15.28,28.5ZM411.91,132.49l-18.6-8,25.15-11.46-6.55,19.46ZM416.91,108.28l-.12.06-19.53-10.56,4.34-18.05,15.31,28.55ZM397.65,72.39l-17-11.44,2.25-16.12,14.75,27.56ZM378.95,59.83l-13.69-9.2,16-7.29-2.31,16.49ZM364.44,10.49l14.46,27-14.87-12.53.41-14.47ZM361.68,44.12l-10.5-27.63,11,9.28-.5,18.35ZM362.27,23.44l-11.81-9.95,12.25-5.58-.44,15.53ZM363.96,27.23l14.31,12-14.85,6.77.54-18.77ZM364.89,52.57l13.79,9.26-2.78,19.79-11.01-29.05ZM380.34,62.95l16.57,11.13-19.37,8.82,2.8-19.95ZM400.11,78.06l-4.52,18.81-16.81-9.11,21.33-9.7ZM379.11,90l16.06,8.68-4.95,20.6-11.11-29.28ZM396.81,99.57l17.91,9.68-22.75,10.34,4.84-20.02ZM392.81,126.19l18.51,8-7.27,21.63-11.24-29.63ZM412.98,134.9l20.75,9-28.07,12.78,7.32-21.78ZM406.74,162.9l21,7.32-9.56,22.83-11.44-30.15ZM429.45,170.82l22.72,7.92-32.18,14.65,9.46-22.57ZM420.59,199.41l23.38,6.46-11.88,23.84-11.5-30.3ZM445.78,206.35l25.41,7-37.4,17,11.99-24ZM436.78,239.35l25.48,6.54-9.59,18.72-15.89-25.26ZM464.05,246.35l20.73,5.32-30.72,14,9.99-19.32ZM473.83,298.25l-13.61-21.64,19.24,7.13-5.63,14.51ZM480.11,282.06l-21.46-8-.53-.83,30-13.65.31,1-8.32,21.48ZM481.8,282.68l7.4-19.19,7.48,24.74-14.88-5.55Z"/><path class="cls-4" d="M329.13,104.78v-6.98c0-4.57,0-11.29-.06-19.9,0-17.23-.05-42-.09-72.3v-.19h.19l31.61-3.35h.11l.08.09,82.45,92.15,120,134.32,36.36,40.73,9.86,11.1,2.55,2.89c.57.65.86,1,.86,1,0,0-.31-.32-.9-1s-1.46-1.6-2.59-2.86c-2.28-2.52-5.62-6.24-9.93-11l-36.44-40.64-120.15-134.2L360.64,2.49l.19.08-31.68,3.28.18-.2c0,30.28-.06,55.07-.09,72.3v25.1c0,1.2-.11,1.73-.11,1.73Z"/><rect class="cls-4" x="326.27" y="76.53" width="5.06" height="10.85" rx=".38" ry=".38"/><path class="cls-4" d="M337.39,89.06h-16.61c-1.02,0-1.85-.83-1.85-1.85h0c0-1.02.83-1.85,1.85-1.85h16.62c1.02,0,1.85.83,1.85,1.85h0c0,1.02-.83,1.85-1.85,1.85,0,0,0,0-.01,0Z"/><path class="cls-4" d="M330.29,118.78l-.06-2.37-2.45,1.08c-.09.87-.09,1.76,0,2.63,0,.14.03.28.09.41.15.2.36.34.6.41,1.07.41,1.96,1.19,2.51,2.2.7,1.43.11,3.16-1.33,3.87-.1.05-.21.1-.32.13-1.58.48-3.26-.42-3.74-2,0-.41,0-1-.56-1-.81-.08-1.16,1.1-1.14,1.72.13,3.59,3.51,4.73,4.94,4.78.97.07,1.94-.14,2.8-.6,1.37-.79,2.33-2.15,2.62-3.71.78-4.72-4.21-7.25-3.96-7.55Z"/><path class="cls-8" d="M332.38,117.6l10.62-25.55c.74-1.79-.11-3.84-1.9-4.58-.42-.17-.88-.27-1.34-.27h-21.23c-1.93,0-3.5,1.56-3.51,3.49,0,.47.09.93.27,1.36l10.61,25.55c.75,1.79,2.8,2.64,4.59,1.89.85-.36,1.53-1.04,1.89-1.89Z"/><path class="cls-3" d="M319.61,89.01l-2.75,2.74c0,.1,0,.21.05.31l.9,2.16,5.21-5.21h-3.41Z"/><polygon class="cls-3" points="329.86 89.01 326.44 89.01 318.81 96.64 319.82 99.05 329.86 89.01"/><polygon class="cls-3" points="337.16 102.21 339.58 96.37 324.83 111.12 325.83 113.53 337.16 102.21"/><path class="cls-3" d="M334.78,108.06l-7.89,7.89.26.64c.23.58.7,1.03,1.29,1.23l3.91-3.92,2.43-5.84Z"/><polygon class="cls-3" points="336.69 89.01 333.28 89.01 320.82 101.46 321.82 103.88 336.69 89.01"/><path class="cls-3" d="M341.53,91c-.07-.89-.7-1.63-1.57-1.84l-17.18,17.13,1,2.42,17.75-17.71Z"/><path class="cls-4" d="M602.55,278.83h17.84c1.46,0,2.64,1.18,2.64,2.64h0v8.14h-23.12v-8.12c-.01-1.46,1.16-2.65,2.62-2.66,0,0,.01,0,.02,0Z"/><path class="cls-4" d="M559.51,286.93h-3.79v-22.54c0-1,.16-1.99.46-2.94l1.91-5.9c.03-.07.12-.1.19-.06.03.01.05.04.06.06l2.23,4-.59,1.83c-.31.97-.47,1.98-.47,3v22.55Z"/><path class="cls-3" d="M652.92,291.03c-1.07-2.62-3.41-4.5-6.19-5l-94.8-.05v-15.75c0-2.12-1.71-3.83-3.83-3.83h-45.82c-1.67,0-3.14,1.07-3.65,2.66l-1.37,4.34h5.1c1.18,0,2.3.52,3.06,1.42.75.89,1.04,2.07.8,3.2l-4.9,23.25c-.43,1.79-2.03,3.06-3.87,3.07h-9.73c-.13,1.48-.04,2.97.26,4.43l.54,2.33-25.08,4.93c-.41.08-.73.39-.82.8l-2.36,6.34c-.15.29-.27.59-.34.91h0c-.5,2.09-.13,5.59,1.13,5.59h26.87l-1.14,1.36-1.52,4.72h170.69c.04-15.26-.36-38.26-3.03-44.72ZM534.61,276.61l-2.52,22.88c0,.29-.08.58-.13.86-1.04,4.66-5.22,7.95-10,7.86h-11.26c-1.92,0-3.47-1.56-3.47-3.47,0-.24.03-.49.08-.73l5.3-27.46c.37-1.79,1.94-3.08,3.77-3.08h15.4c1.6,0,2.89,1.3,2.89,2.89,0,.11,0,.21-.02.32l-.04-.07Z"/><path class="cls-9" d="M576.59,347.13l-72.65,1c-.47,0-1.31-1.4-1.31-1.87v-8.11c0-.47.39-.86.86-.86h73.1c.47,0,.85.38.85.85,0,0,0,0,0,.01v8.11c.01.47-.36.86-.83.87,0,0-.01,0-.02,0Z"/><path class="cls-3" d="M534.61,276.61l-2.52,22.88c0,.29-.08.57-.13.86-1.03,4.67-5.22,7.96-10,7.85h-11.24c-1.92,0-3.47-1.57-3.47-3.49,0-.24.03-.48.08-.72l5.3-27.46c.37-1.79,1.94-3.07,3.77-3.08h15.38c1.6,0,2.89,1.31,2.89,2.91,0,.1,0,.21-.02.31l-.04-.06Z"/><g class="cls-13"><path class="cls-1" d="M656.01,337.73c.07-.62,0-1.25-.23-1.83h-170.31c-.22.58-.31,1.21-.24,1.83h170.78Z"/><path class="cls-3" d="M498.63,269.05l-10.25,31.85c-.82,2.54-.96,5.26-.4,7.87l4.39,20.36h59.56v-58.9c0-2.12-1.72-3.84-3.84-3.84h-45.81c-1.66,0-3.14,1.08-3.65,2.66Z"/></g><path class="cls-9" d="M510.72,308.14c-1.92,0-3.47-1.56-3.47-3.47,0-.24.03-.49.08-.73l5.3-27.46c.37-1.79,1.94-3.08,3.77-3.08h15.38c.83,0,1.61.37,2.15,1,.55.61.81,1.43.72,2.25l-2.56,22.84c0,.29-.08.58-.13.86-1.04,4.66-5.22,7.95-10,7.86l-11.24-.07Z"/><path class="cls-9" d="M487.72,304.39c.1-1.12.32-2.23.68-3.3l8.9-27.64h5.09c1.18,0,2.3.51,3.06,1.41.75.89,1.05,2.07.81,3.21l-4.91,23.24c-.42,1.79-2.02,3.06-3.86,3.08h-9.77Z"/><path class="cls-4" d="M656.09,340.26h-170.64c-1.3,0-1.3-4.72,0-4.72h170.64c1.31,0,1.31,4.72,0,4.72Z"/><path class="cls-4" d="M552.08,287.23v1c0,.69,0,1.64-.06,2.84-.08,2.51-.19,6.07-.32,10.45s-.34,9.68-.54,15.5c-.06,1.46-.11,3-.17,4.48.03,1.6-.32,3.19-1,4.64-.85,1.49-2.27,2.57-3.93,3-1.63.44-3.31.64-5,.6l-34.51-.65-10.45-.26-2.84-.1h-.74c-.08.01-.17.01-.25,0,.08-.02.17-.02.25,0h3.58l10.46.1,34.5.49c1.64.05,3.28-.14,4.86-.56,1.52-.38,2.83-1.35,3.63-2.7.67-1.38,1.01-2.89,1-4.42.07-1.52.13-3,.19-4.48.24-5.82.46-11.07.65-15.49s.37-7.94.49-10.45c.06-1.2.12-2.15.15-2.84,0-.3,0-.54.06-.73-.05-.14-.05-.28-.01-.42Z"/><path class="cls-4" d="M503.45,329.37c-.15,0-.26-5-.26-11.17s.11-11.18.26-11.18.26,5,.26,11.18-.12,11.17-.26,11.17Z"/><path class="cls-4" d="M512.38,266.58c-.03.54-.09,1.08-.19,1.61-.15,1-.4,2.53-.73,4.37-.65,3.68-1.64,8.75-2.88,14.31s-2.52,10.58-3.5,14.18c-.49,1.81-.9,3.26-1.21,4.26-.13.53-.3,1.04-.52,1.54.07-.54.18-1.07.33-1.59.27-1.1.62-2.55,1.05-4.3.88-3.63,2.09-8.64,3.34-14.2s2.29-10.61,3-14.27l.89-4.33c.09-.54.23-1.07.42-1.58Z"/><path class="cls-3" d="M532.13,317.23c.33-.08.64-.21.93-.38.31-.23.53-.56.64-.93.12-.49.06-1-.18-1.44-.31-.52-.88-.82-1.48-.78h-7.46c-.8.01-1.46.63-1.52,1.43-.12.74.3,1.46,1,1.73.16.06.33.09.5.09h3.67c1.21,0,2.19.05,2.86.08.35-.01.71.02,1.05.1-.34.08-.7.11-1.05.1-.67,0-1.65.06-2.86.08h-3.65c-.22,0-.45-.03-.66-.1-.92-.33-1.49-1.26-1.37-2.23.05-1.07.93-1.91,2-1.91h7.46c.74-.02,1.43.36,1.8,1,.15.28.23.59.24.91.02.27-.02.55-.1.81-.15.42-.43.77-.81,1-.23.15-.49.23-.76.25-.16.23-.25.2-.25.19Z"/><path class="cls-4" d="M644.87,292.69c0,.15-7,.26-15.58.26s-15.58-.11-15.58-.26,7-.26,15.58-.26,15.58.12,15.58.26Z"/><path class="cls-4" d="M644.87,295.79c0,.15-7,.27-15.58.27s-15.58-.12-15.58-.27,7-.26,15.58-.26,15.58.12,15.58.26Z"/><path class="cls-4" d="M644.87,298.9c0,.14-7,.26-15.58.26s-15.58-.12-15.58-.26,7-.26,15.58-.26,15.58.11,15.58.26Z"/><path class="cls-4" d="M644.87,302c0,.14-7,.26-15.58.26s-15.58-.12-15.58-.26,7-.26,15.58-.26,15.58.11,15.58.26Z"/><path class="cls-4" d="M644.87,305.1c0,.14-7,.26-15.58.26s-15.58-.12-15.58-.26,7-.26,15.58-.26,15.58.11,15.58.26Z"/><path class="cls-4" d="M644.87,308.2c0,.14-7,.26-15.58.26s-15.58-.12-15.58-.26,7-.26,15.58-.26,15.58.11,15.58.26Z"/><path class="cls-4" d="M644.87,311.3c0,.14-7,.26-15.58.26s-15.58-.12-15.58-.26,7-.26,15.58-.26,15.58.11,15.58.26Z"/><path class="cls-4" d="M467.98,384.95c-9.35,0-17.22-9-17.22-18.38s8.23-17.24,17.58-17.24l150.63-6.84c7.8-.43,15.16,3.67,18.89,10.54,2.23,4.29,2.83,9.25,1.68,13.95-4,18.2-19.11,18-25,17.59s-146.56.38-146.56.38Z"/><circle class="cls-9" cx="467.98" cy="366.46" r="14.07"/><circle class="cls-9" cx="618.02" cy="363.6" r="18.2"/><path class="cls-9" d="M620.05,345.98l-.39.06-1.15.13-4.42.44c-3.85.38-9.41.88-16.3,1.44-13.76,1.13-32.8,2.44-53.85,3.37s-40.15,1.3-54,1.38h-16.36l-4.44-.06h-1.16c-.13.02-.26.02-.39,0h5.99l16.36-.16c13.8-.18,32.88-.61,53.93-1.53s40.09-2.18,53.85-3.22l16.31-1.27,4.43-.35,1.16-.07c.14-.07.28-.13.43-.16Z"/><path class="cls-9" d="M614.26,380.08c0,.14-32.75.26-73.15.26s-73.15-.12-73.15-.26,32.74-.26,73.15-.26,73.15.11,73.15.26Z"/><path class="cls-3" d="M493.07,328.88c-.4-1.16-.73-2.34-1-3.54-.61-2.19-1.5-5.21-2.4-8.58-.81-2.86-1.44-5.78-1.88-8.72-.11-.9-.17-1.8-.16-2.71,0-.34.04-.68.13-1,.08,0,0,1.41.39,3.64s1.12,5.3,2,8.65,1.74,6.39,2.26,8.62c.26,1.11.46,2,.56,2.64.08.33.12.66.1,1Z"/><path class="cls-12" d="M608,374.84c-.38-.18-.73-.41-1.05-.69-.89-.71-1.68-1.54-2.34-2.47-1-1.38-1.74-2.93-2.19-4.57-1.18-4.09-.33-8.49,2.3-11.84,1.03-1.35,2.3-2.51,3.74-3.41.97-.61,2.01-1.08,3.11-1.41.39-.14.8-.22,1.22-.25-1.45.51-2.83,1.18-4.13,2-1.37.92-2.57,2.07-3.56,3.39-2.49,3.25-3.31,7.48-2.22,11.43.4,1.59,1.08,3.11,2,4.47.9,1.24,1.95,2.36,3.12,3.35Z"/><path class="cls-5" d="M528.94,289.33c-2.5,2.13-5.11,4.13-7.82,6-2.61,1.99-5.32,3.85-8.12,5.55,2.5-2.13,5.11-4.13,7.82-6,2.61-1.99,5.32-3.85,8.12-5.55Z"/><path class="cls-5" d="M530.14,285.08c-2.17,1.83-4.44,3.53-6.81,5.08-2.27,1.69-4.65,3.25-7.11,4.65,2.17-1.83,4.44-3.52,6.81-5.08,2.27-1.69,4.65-3.25,7.11-4.65Z"/><path class="cls-5" d="M500.78,291.64c-1.03,1.04-2.19,1.96-3.45,2.72-1.16.91-2.42,1.68-3.76,2.3,1.05-1.04,2.21-1.95,3.46-2.72,1.15-.91,2.41-1.68,3.75-2.3Z"/><path class="cls-5" d="M502.83,287.66c-2.52,2.39-5.27,4.52-8.21,6.37,2.51-2.4,5.27-4.53,8.21-6.37Z"/><path class="cls-3" d="M534.23,311.99c-3.72.35-7.46.35-11.18,0,3.72-.35,7.46-.35,11.18,0Z"/><path class="cls-12" d="M465.18,378.4c-.42-.03-.83-.11-1.22-.26-1.1-.35-2.13-.86-3.08-1.51-1.41-.97-2.61-2.21-3.55-3.64-2.41-3.56-2.74-8.14-.85-12,.72-1.55,1.74-2.94,3-4.1.84-.78,1.8-1.43,2.84-1.93.37-.19.76-.34,1.17-.43-1.36.71-2.62,1.59-3.75,2.63-1.18,1.15-2.14,2.5-2.83,4-1.77,3.73-1.46,8.11.81,11.55.89,1.4,2.03,2.62,3.37,3.6,1.26.87,2.64,1.58,4.09,2.09Z"/><path class="cls-5" d="M486.52,322.89c0,.14-5.42.26-12.11.26s-12.12-.12-12.12-.26,5.42-.26,12.12-.26,12.11.12,12.11.26Z"/><path class="cls-3" d="M377.3,26.59l-9.12-19.59c-2.82-6.06-10.02-8.68-16.08-5.86,0,0,0,0,0,0h0c-6.06,2.82-8.68,10.02-5.86,16.08,0,0,0,0,0,0l9.13,19.58c.16.37.59.54.96.38.01,0,.03-.01.04-.02l20.6-9.6c.36-.18.5-.61.33-.97Z"/></g><g id="freepik--Fence--inject-3"><rect class="cls-8" x="22.54" y="290.08" width="5.14" height="94.49"/><path class="cls-3" d="M30.31,286.84c0,2.86-2.32,5.18-5.18,5.18-2.86,0-5.18-2.32-5.18-5.18,0-2.86,2.32-5.18,5.18-5.18h0c2.86,0,5.18,2.32,5.18,5.18Z"/><rect class="cls-8" x="124.68" y="290.08" width="5.14" height="94.49"/><path class="cls-3" d="M132.45,286.84c0,2.86-2.32,5.18-5.18,5.18-2.86,0-5.18-2.32-5.18-5.18s2.32-5.18,5.18-5.18h0c2.86,0,5.18,2.32,5.18,5.18Z"/><rect class="cls-3" x="7.87" y="299.2" width="131.69" height="23.56"/><polygon class="cls-11" points="22.77 299.19 22.54 299.59 9.01 322.76 7.87 322.76 7.87 299.19 22.77 299.19"/><polygon class="cls-11" points="56.06 299.19 42.28 322.76 24.29 322.76 29.76 313.4 38.06 299.19 56.06 299.19"/><polygon class="cls-11" points="89.33 299.19 75.56 322.76 57.56 322.76 71.33 299.19 89.33 299.19"/><polygon class="cls-11" points="122.59 299.2 108.82 322.76 90.83 322.76 104.6 299.2 122.59 299.2"/><polygon class="cls-11" points="139.56 299.2 139.56 322.76 124.1 322.76 137.88 299.2 139.56 299.2"/><rect class="cls-3" x="7.87" y="335.59" width="131.69" height="23.56"/><polygon class="cls-11" points="22.77 335.6 22.54 335.99 9.01 359.16 7.87 359.16 7.87 335.6 22.77 335.6"/><polygon class="cls-11" points="56.06 335.6 42.28 359.16 24.29 359.16 29.76 349.8 38.06 335.6 56.06 335.6"/><polygon class="cls-11" points="89.33 335.6 75.56 359.16 57.56 359.16 71.33 335.6 89.33 335.6"/><polygon class="cls-11" points="122.59 335.6 108.82 359.16 90.83 359.16 104.6 335.6 122.59 335.6"/><polygon class="cls-11" points="139.56 335.6 139.56 359.16 124.1 359.16 137.88 335.6 139.56 335.6"/><path class="cls-4" d="M139.56,322.76v-6.17c0-4-.05-9.88-.08-17.39l.14.13-131.74.16h0l.26-.26v23.56l-.26-.26,93.75.11,27.8.08h10.14-10.02l-27.74.07-93.93.11h-.26v-23.97h.27l131.68.13h.13v.14c0,7.54-.06,13.44-.07,17.47v5.71c0,.28-.07.38-.07.38Z"/><path class="cls-4" d="M139.56,359.16v-6.17c0-4-.05-9.88-.08-17.4l.14.14-131.68.12h0l.26-.26v23.57l-.26-.26,93.75.11,27.8.08h10.14-10.02l-27.74.08-93.93.11h-.26v-23.95h.27l131.68.13h.13v.13c0,7.55-.06,13.45-.07,17.48v5.71c0,.28-.13.38-.13.38Z"/></g><g id="freepik--Floor--inject-3"><path class="cls-4" d="M649.56,384.95c0,.14-145.42.26-324.76.26s-324.8-.12-324.8-.26,145.39-.26,324.8-.26,324.76.11,324.76.26Z"/></g></g></g></svg>